<svg xmlns="http://www.w3.org/2000/svg" xmlns:xlink="http://www.w3.org/1999/xlink" width="1366" zoomAndPan="magnify" viewBox="0 0 1024.5 576" height="768" preserveAspectRatio="xMidYMid meet" version="1.0"><defs><clipPath id="e688a3ff8b"><path d="M 396.996094 172.855469 L 627.132812 172.855469 L 627.132812 402.992188 L 396.996094 402.992188 Z M 396.996094 172.855469 " clip-rule="nonzero"/></clipPath></defs><path fill="#55eef2" d="M 399.429688 375.410156 L 399.429688 200.578125 C 399.429688 186.6875 410.6875 175.429688 424.578125 175.429688 L 599.410156 175.429688 C 613.304688 175.429688 624.5625 186.6875 624.5625 200.578125 L 624.5625 375.476562 C 624.5625 389.304688 613.304688 400.5625 599.410156 400.5625 L 424.515625 400.5625 C 410.6875 400.5625 399.429688 389.304688 399.429688 375.410156 Z M 399.429688 375.410156 " fill-opacity="1" fill-rule="nonzero"/><g clip-path="url(#e688a3ff8b)"><path fill="#55eef2" d="M 396.855469 375.410156 L 396.855469 200.578125 C 396.855469 185.269531 409.269531 172.855469 424.578125 172.855469 L 599.410156 172.855469 C 614.71875 172.855469 627.132812 185.269531 627.132812 200.578125 L 627.132812 375.476562 C 627.132812 390.71875 614.71875 403.132812 599.410156 403.132812 L 424.515625 403.132812 C 409.269531 403.132812 396.855469 390.71875 396.855469 375.410156 Z M 621.988281 200.578125 C 621.988281 188.101562 611.890625 178.003906 599.410156 178.003906 L 424.515625 178.003906 C 412.101562 178.003906 402.003906 188.101562 402.003906 200.578125 L 402.003906 375.476562 C 402.003906 387.890625 412.101562 398.054688 424.578125 398.054688 L 599.410156 398.054688 C 611.824219 398.054688 621.988281 387.953125 621.988281 375.539062 Z M 621.988281 200.578125 " fill-opacity="1" fill-rule="nonzero"/></g><path fill="#ffffff" d="M 567.054688 372.582031 C 579.472656 372.582031 589.570312 362.480469 589.570312 350.066406 C 589.570312 337.652344 579.472656 327.554688 567.054688 327.554688 C 554.640625 327.554688 544.542969 337.652344 544.542969 350.066406 C 544.542969 362.546875 554.578125 372.582031 567.054688 372.582031 Z M 457 248.371094 C 469.414062 248.371094 479.511719 238.273438 479.511719 225.859375 C 479.511719 213.445312 469.414062 203.34375 457 203.34375 C 444.585938 203.34375 434.484375 213.445312 434.484375 225.859375 C 434.484375 238.273438 444.519531 248.371094 457 248.371094 Z M 544.542969 225.859375 C 544.542969 238.273438 554.640625 248.371094 567.054688 248.371094 C 579.472656 248.371094 589.570312 238.273438 589.570312 225.859375 C 589.570312 213.445312 579.472656 203.34375 567.054688 203.34375 C 554.640625 203.34375 544.542969 213.445312 544.542969 225.859375 Z M 434.484375 350.066406 C 434.484375 362.480469 444.585938 372.582031 457 372.582031 C 469.414062 372.582031 479.511719 362.480469 479.511719 350.066406 C 479.511719 337.652344 469.414062 327.554688 457 327.554688 C 444.585938 327.554688 434.484375 337.652344 434.484375 350.066406 Z M 567.054688 310.507812 C 579.472656 310.507812 589.570312 300.410156 589.570312 287.996094 C 589.570312 275.582031 579.472656 265.480469 567.054688 265.480469 C 554.640625 265.480469 544.542969 275.582031 544.542969 287.996094 C 544.542969 300.410156 554.578125 310.507812 567.054688 310.507812 Z M 457 310.507812 C 469.414062 310.507812 479.511719 300.410156 479.511719 287.996094 C 479.511719 275.582031 469.414062 265.480469 457 265.480469 C 444.585938 265.480469 434.484375 275.582031 434.484375 287.996094 C 434.484375 300.410156 444.519531 310.507812 457 310.507812 Z M 457 310.507812 " fill-opacity="1" fill-rule="nonzero"/></svg>