<svg xmlns="http://www.w3.org/2000/svg" xmlns:xlink="http://www.w3.org/1999/xlink" width="1366" zoomAndPan="magnify" viewBox="0 0 1024.5 576" height="768" preserveAspectRatio="xMidYMid meet" version="1.0"><defs><clipPath id="a481ccbc5a"><path d="M 396.855469 172.855469 L 626.992188 172.855469 L 626.992188 402.992188 L 396.855469 402.992188 Z M 396.855469 172.855469 " clip-rule="nonzero"/></clipPath></defs><path fill="#55eef2" d="M 599.410156 400.5625 L 424.578125 400.5625 C 410.6875 400.5625 399.429688 389.304688 399.429688 375.410156 L 399.429688 200.578125 C 399.429688 186.6875 410.6875 175.429688 424.578125 175.429688 L 599.476562 175.429688 C 613.304688 175.429688 624.5625 186.6875 624.5625 200.578125 L 624.5625 375.476562 C 624.5625 389.304688 613.304688 400.5625 599.410156 400.5625 Z M 599.410156 400.5625 " fill-opacity="1" fill-rule="nonzero"/><g clip-path="url(#a481ccbc5a)"><path fill="#55eef2" d="M 599.410156 403.132812 L 424.578125 403.132812 C 409.269531 403.132812 396.855469 390.71875 396.855469 375.410156 L 396.855469 200.578125 C 396.855469 185.269531 409.269531 172.855469 424.578125 172.855469 L 599.476562 172.855469 C 614.71875 172.855469 627.132812 185.269531 627.132812 200.578125 L 627.132812 375.476562 C 627.132812 390.71875 614.71875 403.132812 599.410156 403.132812 Z M 424.578125 178.003906 C 412.101562 178.003906 402.003906 188.101562 402.003906 200.578125 L 402.003906 375.476562 C 402.003906 387.890625 412.101562 397.988281 424.578125 397.988281 L 599.476562 397.988281 C 611.890625 397.988281 622.054688 387.890625 622.054688 375.410156 L 622.054688 200.578125 C 622.054688 188.164062 611.953125 178.003906 599.539062 178.003906 Z M 424.578125 178.003906 " fill-opacity="1" fill-rule="nonzero"/></g><path fill="#ffffff" d="M 589.503906 232.933594 C 589.503906 220.519531 579.40625 210.421875 566.992188 210.421875 C 554.578125 210.421875 544.480469 220.519531 544.480469 232.933594 C 544.480469 245.347656 554.578125 255.449219 566.992188 255.449219 C 579.40625 255.449219 589.503906 245.414062 589.503906 232.933594 Z M 479.449219 342.992188 C 479.449219 330.578125 469.347656 320.480469 456.933594 320.480469 C 444.519531 320.480469 434.421875 330.578125 434.421875 342.992188 C 434.421875 355.40625 444.519531 365.503906 456.933594 365.503906 C 469.347656 365.503906 479.449219 355.46875 479.449219 342.992188 Z M 456.933594 255.449219 C 469.347656 255.449219 479.449219 245.347656 479.449219 232.933594 C 479.449219 220.519531 469.347656 210.421875 456.933594 210.421875 C 444.519531 210.421875 434.421875 220.519531 434.421875 232.933594 C 434.421875 245.347656 444.519531 255.449219 456.933594 255.449219 Z M 566.992188 365.503906 C 579.40625 365.503906 589.503906 355.40625 589.503906 342.992188 C 589.503906 330.578125 579.40625 320.480469 566.992188 320.480469 C 554.578125 320.480469 544.480469 330.578125 544.480469 342.992188 C 544.480469 355.40625 554.578125 365.503906 566.992188 365.503906 Z M 566.992188 365.503906 " fill-opacity="1" fill-rule="nonzero"/></svg>