<svg xmlns="http://www.w3.org/2000/svg" xmlns:xlink="http://www.w3.org/1999/xlink" width="1366" zoomAndPan="magnify" viewBox="0 0 1024.5 576" height="768" preserveAspectRatio="xMidYMid meet" version="1.0"><defs><clipPath id="d831f48b25"><path d="M 396.855469 172.855469 L 626.992188 172.855469 L 626.992188 402.992188 L 396.855469 402.992188 Z M 396.855469 172.855469 " clip-rule="nonzero"/></clipPath></defs><path fill="#55eef2" d="M 599.410156 400.5625 L 424.578125 400.5625 C 410.6875 400.5625 399.429688 389.304688 399.429688 375.410156 L 399.429688 200.578125 C 399.429688 186.6875 410.6875 175.429688 424.578125 175.429688 L 599.476562 175.429688 C 613.304688 175.429688 624.5625 186.6875 624.5625 200.578125 L 624.5625 375.476562 C 624.5625 389.304688 613.304688 400.5625 599.410156 400.5625 Z M 599.410156 400.5625 " fill-opacity="1" fill-rule="nonzero"/><g clip-path="url(#d831f48b25)"><path fill="#55eef2" d="M 599.410156 403.132812 L 424.578125 403.132812 C 409.269531 403.132812 396.855469 390.71875 396.855469 375.410156 L 396.855469 200.578125 C 396.855469 185.269531 409.269531 172.855469 424.578125 172.855469 L 599.476562 172.855469 C 614.71875 172.855469 627.132812 185.269531 627.132812 200.578125 L 627.132812 375.476562 C 627.132812 390.71875 614.71875 403.132812 599.410156 403.132812 Z M 424.578125 178.003906 C 412.101562 178.003906 402.003906 188.101562 402.003906 200.578125 L 402.003906 375.476562 C 402.003906 387.890625 412.101562 397.988281 424.578125 397.988281 L 599.476562 397.988281 C 611.890625 397.988281 622.054688 387.890625 622.054688 375.410156 L 622.054688 200.578125 C 622.054688 188.164062 611.953125 178.003906 599.539062 178.003906 Z M 424.578125 178.003906 " fill-opacity="1" fill-rule="nonzero"/></g><path fill="#ffffff" d="M 589.503906 232.933594 C 589.503906 233.671875 589.46875 234.40625 589.398438 235.140625 C 589.324219 235.875 589.214844 236.601562 589.074219 237.328125 C 588.929688 238.050781 588.75 238.765625 588.535156 239.46875 C 588.320312 240.175781 588.074219 240.867188 587.792969 241.550781 C 587.507812 242.230469 587.195312 242.898438 586.847656 243.546875 C 586.5 244.199219 586.121094 244.828125 585.710938 245.441406 C 585.300781 246.054688 584.863281 246.648438 584.394531 247.214844 C 583.925781 247.785156 583.433594 248.332031 582.910156 248.855469 C 582.390625 249.375 581.84375 249.871094 581.273438 250.335938 C 580.703125 250.804688 580.113281 251.242188 579.5 251.652344 C 578.886719 252.0625 578.253906 252.441406 577.605469 252.789062 C 576.953125 253.136719 576.289062 253.453125 575.609375 253.734375 C 574.925781 254.015625 574.234375 254.265625 573.527344 254.476562 C 572.820312 254.691406 572.105469 254.871094 571.382812 255.015625 C 570.660156 255.160156 569.933594 255.265625 569.199219 255.339844 C 568.464844 255.410156 567.730469 255.449219 566.992188 255.449219 C 566.253906 255.449219 565.519531 255.410156 564.785156 255.339844 C 564.050781 255.265625 563.324219 255.160156 562.601562 255.015625 C 561.875 254.871094 561.164062 254.691406 560.457031 254.476562 C 559.75 254.265625 559.058594 254.015625 558.375 253.734375 C 557.695312 253.453125 557.03125 253.136719 556.378906 252.789062 C 555.730469 252.441406 555.097656 252.0625 554.484375 251.652344 C 553.871094 251.242188 553.28125 250.804688 552.710938 250.335938 C 552.140625 249.871094 551.59375 249.375 551.074219 248.855469 C 550.550781 248.332031 550.058594 247.785156 549.589844 247.214844 C 549.121094 246.648438 548.683594 246.054688 548.273438 245.441406 C 547.863281 244.828125 547.484375 244.199219 547.136719 243.546875 C 546.789062 242.898438 546.476562 242.230469 546.191406 241.550781 C 545.910156 240.867188 545.664062 240.175781 545.449219 239.46875 C 545.234375 238.765625 545.054688 238.050781 544.910156 237.328125 C 544.765625 236.601562 544.660156 235.875 544.585938 235.140625 C 544.515625 234.40625 544.480469 233.671875 544.480469 232.933594 C 544.480469 232.195312 544.515625 231.460938 544.585938 230.726562 C 544.660156 229.992188 544.765625 229.265625 544.910156 228.542969 C 545.054688 227.820312 545.234375 227.105469 545.449219 226.398438 C 545.664062 225.695312 545.910156 225 546.191406 224.320312 C 546.476562 223.636719 546.789062 222.972656 547.136719 222.320312 C 547.484375 221.671875 547.863281 221.039062 548.273438 220.425781 C 548.683594 219.8125 549.121094 219.222656 549.589844 218.652344 C 550.058594 218.082031 550.550781 217.535156 551.074219 217.015625 C 551.59375 216.492188 552.140625 216 552.710938 215.53125 C 553.28125 215.0625 553.871094 214.625 554.484375 214.214844 C 555.097656 213.804688 555.730469 213.425781 556.378906 213.078125 C 557.03125 212.730469 557.695312 212.417969 558.375 212.136719 C 559.058594 211.851562 559.75 211.605469 560.457031 211.390625 C 561.164062 211.175781 561.875 210.996094 562.601562 210.855469 C 563.324219 210.710938 564.050781 210.601562 564.785156 210.53125 C 565.519531 210.457031 566.253906 210.421875 566.992188 210.421875 C 567.730469 210.421875 568.464844 210.457031 569.199219 210.53125 C 569.933594 210.601562 570.660156 210.710938 571.382812 210.855469 C 572.105469 210.996094 572.820312 211.175781 573.527344 211.390625 C 574.234375 211.605469 574.925781 211.851562 575.609375 212.136719 C 576.289062 212.417969 576.953125 212.730469 577.605469 213.078125 C 578.253906 213.425781 578.886719 213.804688 579.5 214.214844 C 580.113281 214.625 580.703125 215.0625 581.273438 215.53125 C 581.84375 216 582.390625 216.492188 582.910156 217.015625 C 583.433594 217.535156 583.925781 218.082031 584.394531 218.652344 C 584.863281 219.222656 585.300781 219.8125 585.710938 220.425781 C 586.121094 221.039062 586.5 221.671875 586.847656 222.320312 C 587.195312 222.972656 587.507812 223.636719 587.792969 224.320312 C 588.074219 225 588.320312 225.695312 588.535156 226.398438 C 588.75 227.105469 588.929688 227.820312 589.074219 228.542969 C 589.214844 229.265625 589.324219 229.992188 589.398438 230.726562 C 589.46875 231.460938 589.503906 232.195312 589.503906 232.933594 Z M 589.503906 232.933594 " fill-opacity="1" fill-rule="nonzero"/><path fill="#ffffff" d="M 479.449219 342.992188 C 479.449219 343.730469 479.410156 344.464844 479.339844 345.199219 C 479.265625 345.933594 479.160156 346.660156 479.015625 347.382812 C 478.871094 348.105469 478.691406 348.820312 478.476562 349.527344 C 478.265625 350.234375 478.015625 350.925781 477.734375 351.605469 C 477.453125 352.289062 477.136719 352.953125 476.789062 353.605469 C 476.441406 354.253906 476.0625 354.886719 475.652344 355.5 C 475.242188 356.113281 474.804688 356.703125 474.335938 357.273438 C 473.871094 357.84375 473.375 358.390625 472.855469 358.910156 C 472.332031 359.433594 471.785156 359.925781 471.214844 360.394531 C 470.648438 360.863281 470.054688 361.300781 469.441406 361.710938 C 468.828125 362.121094 468.199219 362.5 467.546875 362.847656 C 466.898438 363.195312 466.230469 363.507812 465.550781 363.792969 C 464.867188 364.074219 464.175781 364.320312 463.46875 364.535156 C 462.765625 364.75 462.050781 364.929688 461.328125 365.074219 C 460.601562 365.214844 459.875 365.324219 459.140625 365.398438 C 458.40625 365.46875 457.671875 365.503906 456.933594 365.503906 C 456.195312 365.503906 455.460938 365.46875 454.726562 365.398438 C 453.992188 365.324219 453.265625 365.214844 452.542969 365.074219 C 451.820312 364.929688 451.105469 364.75 450.398438 364.535156 C 449.695312 364.320312 449 364.074219 448.320312 363.792969 C 447.636719 363.507812 446.972656 363.195312 446.320312 362.847656 C 445.671875 362.5 445.039062 362.121094 444.425781 361.710938 C 443.8125 361.300781 443.222656 360.863281 442.652344 360.394531 C 442.082031 359.925781 441.535156 359.433594 441.015625 358.910156 C 440.492188 358.390625 440 357.84375 439.53125 357.273438 C 439.0625 356.703125 438.625 356.113281 438.214844 355.5 C 437.804688 354.886719 437.425781 354.253906 437.078125 353.605469 C 436.730469 352.953125 436.417969 352.289062 436.136719 351.605469 C 435.851562 350.925781 435.605469 350.234375 435.390625 349.527344 C 435.175781 348.820312 434.996094 348.105469 434.855469 347.382812 C 434.710938 346.660156 434.601562 345.933594 434.53125 345.199219 C 434.457031 344.464844 434.421875 343.730469 434.421875 342.992188 C 434.421875 342.253906 434.457031 341.519531 434.53125 340.785156 C 434.601562 340.050781 434.710938 339.324219 434.855469 338.601562 C 434.996094 337.875 435.175781 337.164062 435.390625 336.457031 C 435.605469 335.75 435.851562 335.058594 436.136719 334.375 C 436.417969 333.695312 436.730469 333.03125 437.078125 332.378906 C 437.425781 331.730469 437.804688 331.097656 438.214844 330.484375 C 438.625 329.871094 439.0625 329.28125 439.53125 328.710938 C 440 328.140625 440.492188 327.59375 441.015625 327.074219 C 441.535156 326.550781 442.082031 326.058594 442.652344 325.589844 C 443.222656 325.121094 443.8125 324.683594 444.425781 324.273438 C 445.039062 323.863281 445.671875 323.484375 446.320312 323.136719 C 446.972656 322.789062 447.636719 322.472656 448.320312 322.191406 C 449 321.910156 449.695312 321.664062 450.398438 321.449219 C 451.105469 321.234375 451.820312 321.054688 452.542969 320.910156 C 453.265625 320.765625 453.992188 320.660156 454.726562 320.585938 C 455.460938 320.515625 456.195312 320.480469 456.933594 320.480469 C 457.671875 320.480469 458.40625 320.515625 459.140625 320.585938 C 459.875 320.660156 460.601562 320.765625 461.328125 320.910156 C 462.050781 321.054688 462.765625 321.234375 463.46875 321.449219 C 464.175781 321.664062 464.867188 321.910156 465.550781 322.191406 C 466.230469 322.472656 466.898438 322.789062 467.546875 323.136719 C 468.199219 323.484375 468.828125 323.863281 469.441406 324.273438 C 470.054688 324.683594 470.648438 325.121094 471.214844 325.589844 C 471.785156 326.058594 472.332031 326.550781 472.855469 327.074219 C 473.375 327.59375 473.871094 328.140625 474.335938 328.710938 C 474.804688 329.28125 475.242188 329.871094 475.652344 330.484375 C 476.0625 331.097656 476.441406 331.730469 476.789062 332.378906 C 477.136719 333.03125 477.453125 333.695312 477.734375 334.375 C 478.015625 335.058594 478.265625 335.75 478.476562 336.457031 C 478.691406 337.164062 478.871094 337.875 479.015625 338.601562 C 479.160156 339.324219 479.265625 340.050781 479.339844 340.785156 C 479.410156 341.519531 479.449219 342.253906 479.449219 342.992188 Z M 479.449219 342.992188 " fill-opacity="1" fill-rule="nonzero"/></svg>