<svg xmlns="http://www.w3.org/2000/svg" xmlns:xlink="http://www.w3.org/1999/xlink" width="1366" zoomAndPan="magnify" viewBox="0 0 1024.5 576" height="768" preserveAspectRatio="xMidYMid meet" version="1.0"><defs><clipPath id="8fedcc4127"><path d="M 396.855469 172.855469 L 626.992188 172.855469 L 626.992188 402.992188 L 396.855469 402.992188 Z M 396.855469 172.855469 " clip-rule="nonzero"/></clipPath></defs><path fill="#55eef2" d="M 599.410156 400.5625 L 424.578125 400.5625 C 410.6875 400.5625 399.429688 389.304688 399.429688 375.410156 L 399.429688 200.578125 C 399.429688 186.6875 410.6875 175.429688 424.578125 175.429688 L 599.476562 175.429688 C 613.304688 175.429688 624.5625 186.6875 624.5625 200.578125 L 624.5625 375.476562 C 624.5625 389.304688 613.304688 400.5625 599.410156 400.5625 Z M 599.410156 400.5625 " fill-opacity="1" fill-rule="nonzero"/><g clip-path="url(#8fedcc4127)"><path fill="#55eef2" d="M 599.410156 403.132812 L 424.578125 403.132812 C 409.269531 403.132812 396.855469 390.71875 396.855469 375.410156 L 396.855469 200.578125 C 396.855469 185.269531 409.269531 172.855469 424.578125 172.855469 L 599.476562 172.855469 C 614.71875 172.855469 627.132812 185.269531 627.132812 200.578125 L 627.132812 375.476562 C 627.132812 390.71875 614.71875 403.132812 599.410156 403.132812 Z M 424.578125 178.003906 C 412.101562 178.003906 402.003906 188.101562 402.003906 200.578125 L 402.003906 375.476562 C 402.003906 387.890625 412.101562 397.988281 424.578125 397.988281 L 599.476562 397.988281 C 611.890625 397.988281 622.054688 387.890625 622.054688 375.410156 L 622.054688 200.578125 C 622.054688 188.164062 611.953125 178.003906 599.539062 178.003906 Z M 424.578125 178.003906 " fill-opacity="1" fill-rule="nonzero"/></g><path fill="#ffffff" d="M 534.507812 287.996094 C 534.507812 288.734375 534.472656 289.46875 534.398438 290.203125 C 534.328125 290.9375 534.21875 291.664062 534.074219 292.386719 C 533.933594 293.109375 533.753906 293.824219 533.539062 294.53125 C 533.324219 295.234375 533.078125 295.929688 532.796875 296.609375 C 532.511719 297.292969 532.199219 297.957031 531.851562 298.609375 C 531.503906 299.257812 531.125 299.890625 530.714844 300.503906 C 530.304688 301.117188 529.867188 301.707031 529.398438 302.277344 C 528.929688 302.847656 528.4375 303.394531 527.914062 303.914062 C 527.394531 304.4375 526.847656 304.929688 526.277344 305.398438 C 525.707031 305.867188 525.117188 306.304688 524.503906 306.714844 C 523.890625 307.125 523.257812 307.503906 522.609375 307.851562 C 521.957031 308.199219 521.292969 308.511719 520.609375 308.792969 C 519.929688 309.078125 519.234375 309.324219 518.53125 309.539062 C 517.824219 309.753906 517.109375 309.933594 516.386719 310.074219 C 515.664062 310.21875 514.9375 310.328125 514.203125 310.398438 C 513.46875 310.472656 512.734375 310.507812 511.996094 310.507812 C 511.257812 310.507812 510.523438 310.472656 509.789062 310.398438 C 509.054688 310.328125 508.328125 310.21875 507.601562 310.074219 C 506.878906 309.933594 506.164062 309.753906 505.460938 309.539062 C 504.753906 309.324219 504.0625 309.078125 503.378906 308.792969 C 502.699219 308.511719 502.03125 308.199219 501.382812 307.851562 C 500.734375 307.503906 500.101562 307.125 499.488281 306.714844 C 498.875 306.304688 498.28125 305.867188 497.714844 305.398438 C 497.144531 304.929688 496.597656 304.4375 496.078125 303.914062 C 495.554688 303.394531 495.058594 302.847656 494.59375 302.277344 C 494.125 301.707031 493.6875 301.117188 493.277344 300.503906 C 492.867188 299.890625 492.488281 299.257812 492.140625 298.609375 C 491.792969 297.957031 491.476562 297.292969 491.195312 296.609375 C 490.914062 295.929688 490.664062 295.234375 490.453125 294.53125 C 490.238281 293.824219 490.058594 293.109375 489.914062 292.386719 C 489.769531 291.664062 489.664062 290.9375 489.589844 290.203125 C 489.519531 289.46875 489.480469 288.734375 489.480469 287.996094 C 489.480469 287.257812 489.519531 286.523438 489.589844 285.789062 C 489.664062 285.054688 489.769531 284.328125 489.914062 283.601562 C 490.058594 282.878906 490.238281 282.164062 490.453125 281.460938 C 490.664062 280.753906 490.914062 280.0625 491.195312 279.378906 C 491.476562 278.699219 491.792969 278.03125 492.140625 277.382812 C 492.488281 276.730469 492.867188 276.101562 493.277344 275.488281 C 493.6875 274.875 494.125 274.28125 494.59375 273.714844 C 495.058594 273.144531 495.554688 272.597656 496.078125 272.074219 C 496.597656 271.554688 497.144531 271.058594 497.714844 270.59375 C 498.28125 270.125 498.875 269.6875 499.488281 269.277344 C 500.101562 268.867188 500.734375 268.488281 501.382812 268.140625 C 502.03125 267.792969 502.699219 267.476562 503.378906 267.195312 C 504.0625 266.914062 504.753906 266.664062 505.460938 266.453125 C 506.164062 266.238281 506.878906 266.058594 507.601562 265.914062 C 508.328125 265.769531 509.054688 265.664062 509.789062 265.589844 C 510.523438 265.519531 511.257812 265.480469 511.996094 265.480469 C 512.734375 265.480469 513.46875 265.519531 514.203125 265.589844 C 514.9375 265.664062 515.664062 265.769531 516.386719 265.914062 C 517.109375 266.058594 517.824219 266.238281 518.53125 266.453125 C 519.234375 266.664062 519.929688 266.914062 520.609375 267.195312 C 521.292969 267.476562 521.957031 267.792969 522.609375 268.140625 C 523.257812 268.488281 523.890625 268.867188 524.503906 269.277344 C 525.117188 269.6875 525.707031 270.125 526.277344 270.59375 C 526.847656 271.058594 527.394531 271.554688 527.914062 272.074219 C 528.4375 272.597656 528.929688 273.144531 529.398438 273.714844 C 529.867188 274.28125 530.304688 274.875 530.714844 275.488281 C 531.125 276.101562 531.503906 276.730469 531.851562 277.382812 C 532.199219 278.03125 532.511719 278.699219 532.796875 279.378906 C 533.078125 280.0625 533.324219 280.753906 533.539062 281.460938 C 533.753906 282.164062 533.933594 282.878906 534.074219 283.601562 C 534.21875 284.328125 534.328125 285.054688 534.398438 285.789062 C 534.472656 286.523438 534.507812 287.257812 534.507812 287.996094 Z M 534.507812 287.996094 " fill-opacity="1" fill-rule="nonzero"/></svg>